<svg width="121" height="23" viewBox="0 0 121 23" fill="none" xmlns="http://www.w3.org/2000/svg">
<path d="M2.01641 22.6255H12.0377C12.5706 22.6255 13.0819 22.4145 13.4597 22.0387C13.8375 21.6629 14.0512 21.1528 14.0541 20.6199V9.46997H2.01641C1.48163 9.46997 0.968745 9.68241 0.590594 10.0606C0.212443 10.4387 0 10.9516 0 11.4864L0 20.6199C0.0028682 21.1528 0.216577 21.6629 0.594417 22.0387C0.972257 22.4145 1.4835 22.6255 2.01641 22.6255Z" fill="#7A00DD"/>
<path d="M16.0624 22.6278H26.0468C26.3118 22.6278 26.5742 22.5755 26.819 22.4741C27.0637 22.3726 27.2861 22.2239 27.4734 22.0364C27.6607 21.8489 27.8091 21.6264 27.9104 21.3815C28.0116 21.1366 28.0635 20.8742 28.0632 20.6092V10.9113C28.0632 9.97447 27.7643 9.06206 27.2102 8.30668L22.5002 1.86241C22.3392 1.64694 22.1304 1.47182 21.8901 1.35084C21.6499 1.22987 21.3849 1.16635 21.1159 1.1653C20.847 1.16424 20.5814 1.22569 20.3403 1.34478C20.0991 1.46387 19.8889 1.63736 19.7263 1.85156L14.0547 9.47008V20.62C14.057 21.1518 14.2692 21.6612 14.6453 22.0372C15.0213 22.4132 15.5306 22.6255 16.0624 22.6278Z" fill="white"/>
<path d="M6.00874 1.4152L1.7046 7.19095C1.54651 7.40324 1.45053 7.65528 1.42736 7.91894C1.40419 8.18261 1.45474 8.44753 1.57338 8.68413C1.69202 8.92074 1.87408 9.11972 2.09923 9.25887C2.32439 9.39802 2.58378 9.47187 2.84846 9.47217H14.057L19.4139 2.28123C19.5724 2.06836 19.6685 1.81551 19.6913 1.55107C19.7141 1.28663 19.6628 1.02106 19.5431 0.78416C19.4235 0.547256 19.2401 0.348393 19.0137 0.209885C18.7873 0.071376 18.5267 -0.0012978 18.2613 1.75433e-05L8.71104 0.0542805C8.18592 0.0560481 7.66842 0.179924 7.19942 0.416117C6.73043 0.65231 6.32279 0.994348 6.00874 1.4152Z" fill="#58D7FF"/>
<path d="M48.9455 10.9786C48.7632 10.8151 48.6185 10.6139 48.5214 10.3891C48.4244 10.1643 48.3773 9.92105 48.3833 9.67624C48.379 9.43166 48.4269 9.18898 48.5238 8.9644C48.6208 8.73981 48.7645 8.53851 48.9455 8.37393C49.3426 8.01828 49.8627 7.83141 50.3954 7.853C50.9225 7.83367 51.4364 8.02054 51.8279 8.37393C52.008 8.5392 52.1512 8.74064 52.2481 8.96506C52.3449 9.18948 52.3933 9.43182 52.3901 9.67624C52.3956 9.92097 52.3482 10.164 52.2512 10.3888C52.1542 10.6135 52.0098 10.8147 51.8279 10.9786C51.4372 11.3335 50.9229 11.5213 50.3954 11.5016C49.8623 11.5236 49.3418 11.3358 48.9455 10.9786Z" fill="white"/>
<path d="M52.1625 12.6282H48.6094V22.6256H52.1625V12.6282Z" fill="white"/>
<path d="M121 8.03101V22.6212H117.447V8.03101H121Z" fill="white"/>
<path d="M75.6943 13.1794C75.2394 12.4268 74.5749 11.8234 73.7821 11.4429C72.9121 11.0296 71.9582 10.823 70.9952 10.8395C70.088 10.8265 69.1901 11.0226 68.371 11.4126C67.6124 11.7723 66.9525 12.3108 66.4479 12.9818C66.1221 13.4139 65.8644 13.8934 65.6839 14.4035L69.0048 15.2479C69.0947 14.8204 69.3293 14.4371 69.669 14.1626C70.0338 13.888 70.4825 13.7484 70.9387 13.7676C71.1893 13.756 71.4393 13.8 71.6708 13.8964C71.9024 13.9929 72.1097 14.1394 72.2779 14.3254C72.6277 14.7538 72.8152 15.2918 72.8075 15.8448H70.2029C68.5533 15.8448 67.3132 16.1805 66.4826 16.8519C65.8466 17.37 65.4202 18.1013 65.2825 18.91C65.1448 19.7187 65.3051 20.5499 65.7338 21.2494C66.0694 21.7651 66.5401 22.1788 67.0947 22.4453C67.6937 22.7365 68.3519 22.8851 69.0178 22.8794C69.8034 22.884 70.5792 22.7056 71.2838 22.3585C71.9149 22.0826 72.4455 21.6187 72.8032 21.0301L73.3502 22.6515H76.3889V15.8079C76.405 14.8843 76.1646 13.9744 75.6943 13.1794ZM72.7837 17.8655C72.7909 18.2993 72.6635 18.7247 72.419 19.0832C72.1808 19.432 71.8542 19.7114 71.4727 19.8928C71.0978 20.0768 70.6857 20.1726 70.268 20.1728C69.8976 20.1928 69.5324 20.0788 69.2392 19.8515C69.117 19.7352 69.0206 19.5944 68.9564 19.4383C68.8922 19.2822 68.8615 19.1144 68.8664 18.9457C68.8713 18.777 68.9117 18.6112 68.9849 18.4591C69.0581 18.3071 69.1625 18.1721 69.2913 18.063C69.5756 17.846 70.0076 17.7201 70.5936 17.7201H72.7967L72.7837 17.8655Z" fill="white"/>
<path d="M91.1181 22.6277L88.0946 16.9084C88.8256 16.6218 89.4607 16.1342 89.9265 15.5019C90.4738 14.7449 90.7623 13.8314 90.7491 12.8973V12.6303C90.7593 11.8113 90.551 11.0044 90.1457 10.2927C89.7196 9.57147 89.0856 8.99575 88.3268 8.64092C87.4071 8.21211 86.4002 8.00329 85.3858 8.031H78.4922V22.6212H82.0453V17.4033H84.6934L87.107 22.6364L91.1181 22.6277ZM82.0453 10.9894H85.1796C85.8293 10.9894 86.3176 11.1486 86.6447 11.4669C86.8101 11.6395 86.9385 11.844 87.0221 12.0679C87.1057 12.2919 87.1427 12.5305 87.1309 12.7692V13.0427C87.1462 13.289 87.111 13.5359 87.0274 13.7681C86.9438 14.0002 86.8135 14.2129 86.6447 14.3928C86.3176 14.7111 85.8293 14.871 85.1796 14.8725H82.0453V10.9894Z" fill="white"/>
<path d="M103.209 16.6328C103.231 15.5676 102.975 14.5149 102.466 13.5789C101.991 12.7238 101.279 12.0243 100.415 11.5647C99.492 11.0835 98.4626 10.8424 97.4219 10.8636C96.3582 10.845 95.3072 11.0975 94.368 11.5972C93.4916 12.0729 92.774 12.7951 92.3038 13.6744C91.7966 14.6491 91.5442 15.7362 91.5702 16.8347C91.5702 20.6852 94.2269 22.7884 97.4414 22.7884C100.018 22.7884 101.88 21.5469 102.807 19.6564L99.3124 18.7751C99.002 19.4719 98.2467 19.8995 97.3242 19.8995C95.9915 19.8995 95.1689 18.9271 95.106 17.679L103.148 17.666C103.189 17.3231 103.209 16.9781 103.209 16.6328ZM95.1255 15.706C95.1865 15.1372 95.4564 14.6112 95.883 14.2301C96.3054 13.8798 96.8409 13.6954 97.3893 13.7113C97.9579 13.6916 98.5135 13.8843 98.9478 14.2518C99.1546 14.4316 99.3182 14.6558 99.4264 14.9075C99.5346 15.1593 99.5847 15.4322 99.5729 15.706H95.1255Z" fill="white"/>
<path d="M114.675 13.1794C114.221 12.4259 113.556 11.8221 112.763 11.4429C111.894 11.0296 110.94 10.8231 109.978 10.8395C109.069 10.8261 108.169 11.0222 107.347 11.4126C106.589 11.7731 105.929 12.3114 105.424 12.9818C105.1 13.415 104.843 13.8942 104.66 14.4035L107.981 15.2479C108.072 14.8202 108.307 14.4369 108.647 14.1626C109.012 13.8883 109.46 13.7487 109.915 13.7676C110.166 13.7558 110.416 13.7997 110.648 13.8961C110.88 13.9926 111.088 14.1392 111.256 14.3254C111.605 14.7542 111.793 15.2919 111.786 15.8448H109.181C107.532 15.8448 106.292 16.1805 105.461 16.8519C104.825 17.37 104.399 18.1013 104.261 18.91C104.123 19.7187 104.284 20.5499 104.712 21.2494C105.048 21.7651 105.519 22.1788 106.073 22.4453C106.672 22.7368 107.33 22.8854 107.996 22.8794C108.784 22.8761 109.56 22.6896 110.262 22.3346C110.893 22.0587 111.424 21.5948 111.782 21.0063L112.329 22.6276H115.367V15.8079C115.386 14.8843 115.146 13.974 114.675 13.1794ZM111.767 17.8655C111.774 18.2993 111.646 18.7247 111.402 19.0832C111.164 19.432 110.837 19.7114 110.456 19.8928C110.08 20.0764 109.668 20.1721 109.251 20.1728C108.877 20.1957 108.507 20.0815 108.211 19.8515C108.088 19.7355 107.991 19.5948 107.927 19.4387C107.862 19.2825 107.831 19.1145 107.836 18.9456C107.841 18.7767 107.882 18.6107 107.955 18.4586C108.029 18.3065 108.134 18.1717 108.263 18.063C108.553 17.8358 108.987 17.7215 109.566 17.7201H111.771L111.767 17.8655Z" fill="white"/>
<path d="M59.398 22.8556C58.7787 22.855 58.1749 22.6624 57.6696 22.3044C57.1643 21.9464 56.7823 21.4406 56.5763 20.8566C55.7081 18.3995 53.1035 11.0393 53.1035 11.0393H56.8672L59.3872 19.3177H59.4089L61.9223 11.048H65.7056C65.7056 11.048 63.0901 18.4082 62.2219 20.8653C62.0143 21.448 61.6314 21.9522 61.1258 22.3086C60.6202 22.665 60.0166 22.8561 59.398 22.8556Z" fill="white"/>
<path d="M33.541 8.04614H37.3329L40.7754 19.0377H40.7949L44.2677 8.04614H48.0292C48.0292 8.04614 44.4869 18.3995 43.6187 20.8522C43.4123 21.4356 43.0301 21.9406 42.5248 22.2978C42.0195 22.655 41.4159 22.8468 40.7971 22.8468C40.1782 22.8468 39.5746 22.655 39.0693 22.2978C38.564 21.9406 38.1818 21.4356 37.9754 20.8522L33.541 8.04614Z" fill="white"/>
</svg>
